<svg id="Component_62_1" data-name="Component 62 – 1" xmlns="http://www.w3.org/2000/svg" width="31" height="28" viewBox="0 0 31 28">
  <path id="Rectangle_6" data-name="Rectangle 6" d="M0,0H17A14,14,0,0,1,31,14v0A14,14,0,0,1,17,28H0a0,0,0,0,1,0,0V0A0,0,0,0,1,0,0Z" fill="#cf9775"/>
  <path id="Union_1" data-name="Union 1" d="M4.651,9.994V6.112H.769a.769.769,0,0,1,0-1.538H4.651V.769a.769.769,0,1,1,1.537,0V4.574H9.995a.769.769,0,0,1,0,1.538H6.188V9.994a.769.769,0,1,1-1.537,0Z" transform="translate(10.243 9.166)" fill="#fff"/>
</svg>
