<svg xmlns="http://www.w3.org/2000/svg" width="40" height="18" viewBox="0 0 40 18">
  <g id="Group_19" data-name="Group 19" transform="translate(-129.551 -715.2)">
    <path id="Fill_9" data-name="Fill 9" d="M15,1.875v11.25A1.875,1.875,0,0,1,13.125,15H1.875A1.875,1.875,0,0,1,0,13.125V1.875A1.875,1.875,0,0,1,1.875,0h11.25A1.875,1.875,0,0,1,15,1.875Z" transform="translate(131.051 716.7)" fill="none" stroke="#cf9775" stroke-miterlimit="10" stroke-width="3" opacity="0.3"/>
    <path id="Fill_9-2" data-name="Fill 9" d="M15,1.875v11.25A1.875,1.875,0,0,1,13.125,15H1.875A1.875,1.875,0,0,1,0,13.125V1.875A1.875,1.875,0,0,1,1.875,0h11.25A1.875,1.875,0,0,1,15,1.875Z" transform="translate(153.051 716.7)" fill="none" stroke="#cf9775" stroke-miterlimit="10" stroke-width="3" opacity="0.3"/>
  </g>
</svg>
